#!OML:ASF Y:\EmotionMaleHayes\Project 1\Capture day 1\Session 1\Male1.ASF
:FULLY-SPECIFIED
:DEGREES
1218
root 25.8123 16.1266 17.6293 663.827 81.7469 667.645
lowerback 9.90551 4.08214 2.47856
upperback 6.47094 5.88674 -1.0622
thorax 1.56767 3.16845 -2.95117
lowerneck -20.7037 -0.0188246 3.09074
upperneck 23.0242 -1.90909 4.05265
head 10.9024 0.0211536 0.680032
rclavicle -1.59028e-014 3.97569e-015
rhumerus -9.21509 24.7948 -92.5088
rradius 49.8356
rwrist -0.209186
rhand -9.99041 -28.7428
rfingers 7.12502
rthumb 15.9929 -58.1026
lclavicle -1.59028e-014 3.97569e-015
lhumerus -24.4714 -2.3579 85.0073
lradius 31.8056
lwrist 2.11628
lhand -16.8578 -27.457
lfingers 7.12502
lthumb 9.37259 2.31461
rfemur 28.1689 3.71056 30.845
rtibia 12.7721
rfoot -27.3157 6.80256
rtoes 2.36603
lfemur -25.3676 2.87283 -9.42862
ltibia 23.3568
lfoot -7.67947 5.3397
ltoes -1.28908
1219
root 25.9834 16.1216 17.6169 663.829 82.0594 667.82
lowerback 10.0959 4.09223 2.20948
upperback 6.53561 5.89272 -1.33109
thorax 1.53456 3.1738 -3.09358
lowerneck -20.9846 -0.168337 2.79735
upperneck 23.075 -2.16727 4.53457
head 10.9883 -0.0537913 0.865996
rclavicle -1.19271e-015 -1.59028e-015
rhumerus -9.92723 24.3216 -93.0052
rradius 49.3589
rwrist -1.09967
rhand -10.2921 -29.3244
rfingers 7.12502
rthumb 15.7023 -58.7073
lclavicle -1.19271e-015 -1.59028e-015
lhumerus -23.467 -1.35862 84.5993
lradius 30.1577
lwrist 0.633771
lhand -17.2562 -27.7407
lfingers 7.12502
lthumb 8.98815 2.04786
rfemur 28.5814 3.83935 30.6882
rtibia 13.5185
rfoot -27.0892 6.54309
rtoes 1.04809
lfemur -25.6183 2.48652 -9.91173
ltibia 25.1326
lfoot -7.67947 5.3397
ltoes -1.28908
1220
root 26.1438 16.1248 17.6121 666.52 81.9694 670.749
lowerback 10.4501 4.28637 1.8482
upperback 6.66685 6.14094 -1.5278
thorax 1.48241 3.29906 -3.14057
lowerneck -21.6531 -0.192024 2.86382
upperneck 23.3404 -2.25846 4.46371
head 11.215 -0.0830644 0.819492
rclavicle -2.8625e-014 2.22639e-014
rhumerus -10.338 24.129 -93.3121
rradius 48.2398
rwrist -0.744394
rhand -11.0039 -28.7846
rfingers 7.12502
rthumb 15.0167 -58.22
lclavicle -2.8625e-014 2.22639e-014
lhumerus -22.2875 -0.0809712 84.1965
lradius 28.5924
lwrist -0.985188
lhand -17.5428 -27.5743
lfingers 7.12502
lthumb 8.71151 2.22589
rfemur 28.9166 4.43923 30.7351
rtibia 14.5547
rfoot -26.601 6.20277
rtoes -0.516613
lfemur -25.4053 2.45982 -10.0989
ltibia 26.4157
lfoot -7.67947 5.3397
ltoes -1.28908
1221
root 26.3061 16.1352 17.6085 669.525 81.7405 674.148
lowerback 10.9828 4.49445 1.42617
upperback 6.76191 6.39854 -1.66995
thorax 1.28307 3.42335 -3.12063
lowerneck -21.9497 -0.34579 2.53207
upperneck 23.408 -2.49026 4.86546
head 11.3115 -0.158458 0.987222
rclavicle 6.67916e-014 -4.6118e-014
rhumerus -11.0454 23.7554 -93.7316
rradius 47.2792
rwrist -0.355045
rhand -11.2442 -28.4323
rfingers 7.12502
rthumb 14.7853 -57.8849
lclavicle 6.67916e-014 -4.6118e-014
lhumerus -21.1679 1.61766 83.7309
lradius 26.7838
lwrist -2.91287
lhand -17.9989 -27.545
lfingers 7.12502
lthumb 8.27136 2.27308
rfemur 29.3931 5.07306 30.7993
rtibia 15.6143
rfoot -25.8112 6.06827
rtoes -0.620986
lfemur -24.8056 2.59178 -10.2436
ltibia 27.4584
lfoot -3.36344 8.57056
ltoes 21.1794
1222
root 26.4776 16.1378 17.5974 672.166 81.9769 677.056
lowerback 11.3066 4.59075 0.838736
upperback 6.67953 6.47449 -1.9534
thorax 0.99635 3.44732 -3.13352
lowerneck -21.4759 -0.399552 2.57438
upperneck 23.3025 -2.57168 4.97467
head 11.1846 -0.183702 1.0054
rclavicle -1.74931e-014 1.43125e-014
rhumerus -12.3 23.0741 -94.4567
rradius 46.4338
rwrist 0.0393988
rhand -11.2038 -28.4615
rfingers 7.12502
rthumb 14.8242 -57.9113
lclavicle -1.74931e-014 1.43125e-014
lhumerus -20.3178 3.71167 83.0988
lradius 24.7375
lwrist -5.1518
lhand -18.5334 -27.8921
lfingers 7.12502
lthumb 7.75555 1.94564
rfemur 29.7534 5.33349 30.3489
rtibia 16.549
rfoot -24.8698 6.00524
rtoes -0.921066
lfemur -24.4578 2.52132 -10.9399
ltibia 28.5705
lfoot -3.43689 8.6868
ltoes 17.3029
1223
root 26.6519 16.1411 17.5898 674.354 82.0489 679.498
lowerback 11.5713 4.77456 0.520242
upperback 6.74335 6.70073 -2.23412
thorax 0.93506 3.56402 -3.29176
lowerneck -21.6038 -0.598681 2.46584
upperneck 23.3603 -2.88921 5.22028
head 11.2436 -0.298991 1.06486
rclavicle 1.98785e-014 -6.36111e-015
rhumerus -13.112 22.1767 -94.9442
rradius 45.2323
rwrist 0.714446
rhand -11.2643 -28.2782
rfingers 7.12502
rthumb 14.7659 -57.7323
lclavicle 1.98785e-014 -6.36111e-015
lhumerus -19.073 6.11634 82.4765
lradius 22.599
lwrist -7.81683
lhand -18.8327 -28.3859
lfingers 7.12502
lthumb 7.46668 1.46235
rfemur 29.9673 5.75614 30.2684
rtibia 17.7141
rfoot -23.9202 5.55275
rtoes -2.81387
lfemur -24.136 2.4641 -11.3297
ltibia 29.7058
lfoot -3.61434 8.86751
ltoes 15.9687
1224
root 26.833 16.1529 17.5795 674.63 81.9606 680.122
lowerback 11.7962 4.88507 0.467977
upperback 6.82345 6.85388 -2.39331
thorax 0.923528 3.6496 -3.46
lowerneck -21.4482 -0.634691 2.787
upperneck 23.3323 -2.96246 4.9406
head 11.1946 -0.342258 0.896769
rclavicle 9.54166e-015 2.70347e-014
rhumerus -13.851 21.4863 -95.3532
rradius 44.1353
rwrist -0.212332
rhand -10.7437 -28.9571
rfingers 7.12502
rthumb 15.2674 -58.3737
lclavicle 9.54166e-015 2.70347e-014
lhumerus -18.0267 9.08222 81.7444
lradius 20.5658
lwrist -10.8401
lhand -18.9495 -28.8568
lfingers 7.12502
lthumb 7.35388 0.995351
rfemur 30.2108 5.92648 30.3774
rtibia 18.9927
rfoot -22.8424 5.35842
rtoes -3.27453
lfemur -23.5207 2.21101 -11.4204
ltibia 30.575
lfoot -4.17934 8.77902
ltoes 15.8031
1225
root 27.0184 16.1629 17.5572 675.209 82.1595 680.889
lowerback 11.8358 4.84629 0.218214
upperback 6.77173 6.77844 -2.60458
thorax 0.841577 3.60892 -3.54145
lowerneck -21.2017 -0.575713 3.05839
upperneck 23.5965 -2.87796 4.63414
head 11.2353 -0.310891 0.755812
rclavicle -3.4191e-014 4.77083e-014
rhumerus -14.9613 21.4943 -96.0443
rradius 42.373
rwrist 0.981925
rhand -11.6931 -28.3558
rfingers 7.12502
rthumb 14.3528 -57.8397
lclavicle -3.4191e-014 4.77083e-014
lhumerus -17.3747 12.4647 80.8431
lradius 18.7383
lwrist -13.9491
lhand -19.0138 -28.6879
lfingers 7.12502
lthumb 7.29182 1.16641
rfemur 30.2416 5.68634 29.8627
rtibia 20.3335
rfoot -21.5574 5.69651
rtoes -2.11598
lfemur -22.8938 1.6466 -11.9837
ltibia 31.1547
lfoot -4.97182 8.59269
ltoes 14.3676
1226
root 27.1994 16.166 17.529 679.033 82.4711 684.57
lowerback 11.5332 4.9803 -0.237996
upperback 6.81561 6.92797 -2.90858
thorax 1.04704 3.68285 -3.58563
lowerneck -21.5872 -0.61234 2.96601
upperneck 23.9245 -2.92699 4.60021
head 11.4343 -0.329055 0.754504
rclavicle -7.55382e-015 -1.11319e-014
rhumerus -15.5122 20.6238 -96.2018
rradius 40.996
rwrist 0.325373
rhand -11.2167 -28.453
rfingers 7.12502
rthumb 14.8118 -57.9037
lclavicle -7.55382e-015 -1.11319e-014
lhumerus -16.3132 16.0464 80.2821
lradius 16.9517
lwrist -17.5172
lhand -19.0507 -28.0263
lfingers 7.12502
lthumb 7.25617 1.82927
rfemur 29.7441 5.50348 28.703
rtibia 21.9455
rfoot -20.1041 6.17976
rtoes -1.54396
lfemur -22.5986 1.18082 -13.0222
ltibia 31.6808
lfoot -5.81823 8.69732
ltoes 12.8881
1227
root 27.3812 16.1639 17.4993 684.585 82.9433 689.774
lowerback 10.9017 5.0871 -0.868474
upperback 6.81415 7.03819 -3.32441
thorax 1.3741 3.73225 -3.61343
lowerneck -21.6774 -0.779465 2.66497
upperneck 24.0237 -3.14553 4.88428
head 11.5029 -0.411489 0.875949
rclavicle -2.10712e-014 -7.95139e-015
rhumerus -16.1517 20.2029 -96.4898
rradius 39.2549
rwrist 0.839433
rhand -12.0512 -28.2226
rfingers 7.12502
rthumb 14.0076 -57.7307
lclavicle -2.10712e-014 -7.95139e-015
lhumerus -15.366 20.5882 79.5485
lradius 15.2476
lwrist -22.1198
lhand -19.0994 -27.3157
lfingers 7.12502
lthumb 7.20921 2.54149
rfemur 28.9611 5.17466 27.1223
rtibia 23.5622
rfoot -18.3367 6.68493
rtoes -1.16541
lfemur -22.6395 0.728658 -14.3658
ltibia 32.2699
lfoot -6.55009 8.78964
ltoes 11.0912
1228
root 27.5537 16.1695 17.4868 687.485 82.8888 692.656
lowerback 10.7983 5.2757 -1.11826
upperback 6.86382 7.28503 -3.55108
thorax 1.4991 3.85931 -3.71805
lowerneck -22.2502 -0.686103 2.79549
upperneck 24.4396 -3.05002 4.66092
head 11.7652 -0.364101 0.791492
rclavicle 1.74931e-014 -3.49861e-014
rhumerus -16.5445 19.2987 -96.599
rradius 37.9086
rwrist 0.167962
rhand -11.2473 -29.2525
rfingers 7.12502
rthumb 14.7822 -58.7053
lclavicle 1.74931e-014 -3.49861e-014
lhumerus -14.4487 25.4576 78.8767
lradius 13.8028
lwrist -27.1524
lhand -19.0019 -26.2524
lfingers 7.12502
lthumb 7.30332 3.6016
rfemur 28.3252 5.2686 26.6385
rtibia 25.4441
rfoot -16.4462 6.60327
rtoes -0.567726
lfemur -22.2675 0.541421 -14.7773
ltibia 32.8496
lfoot -7.35538 8.79476
ltoes 10.2274
1229
root 27.7163 16.1862 17.4838 686.529 82.2241 692.08
lowerback 11.1729 5.35612 -1.16266
upperback 6.73503 7.35761 -3.42582
thorax 1.14267 3.8848 -3.62124
lowerneck -21.8038 -0.702671 2.61921
upperneck 24.8329 -2.94763 4.51067
head 11.8254 -0.344269 0.786606
rclavicle 2.18663e-014 3.33958e-014
rhumerus -17.6513 19.3543 -97.1702
rradius 36.1529
rwrist 0.9707
rhand -11.3238 -29.4439
rfingers 7.12502
rthumb 14.7085 -58.9021
lclavicle 2.18663e-014 3.33958e-014
lhumerus -14.5822 29.4945 77.9011
lradius 13.0332
lwrist -30.6818
lhand -18.5737 -24.5174
lfingers 7.12502
lthumb 7.71661 5.32175
rfemur 27.9199 5.68134 27.2204
rtibia 27.5462
rfoot -14.6792 6.19436
rtoes 0.274648
lfemur -21.3204 0.624011 -14.1775
ltibia 33.3319
lfoot -8.36816 8.77728
ltoes 11.2758
1230
root 27.8766 15.997 17.4714 689.105 82.2218 689.311
lowerback 5.35795 5.28863 -0.999215
upperback 5.46176 7.32389 -3.8031
thorax 3.05063 3.81304 -3.54044
lowerneck -22.3198 -0.664607 2.90371
upperneck 25.5 -2.82204 3.71762
head 12.1624 -0.341605 0.467846
rclavicle -4.77083e-014 4.77083e-014
rhumerus -18.0443 18.9196 -97.371
rradius 34.249
rwrist 1.64144
rhand -11.0406 -29.9749
rfingers 7.12502
rthumb 14.9814 -59.413
lclavicle -4.77083e-014 4.77083e-014
lhumerus -14.1633 32.2345 77.5264
lradius 12.563
lwrist -33.2491
lhand -18.2147 -22.6991
lfingers 7.12502
lthumb 8.06313 7.1271
rfemur 21.5989 5.94817 26.8075
rtibia 29.691
rfoot -12.9118 5.94008
rtoes 0.708925
lfemur -28.8619 0.721528 -13.8573
ltibia 36.5316
lfoot -10.4166 8.89874
ltoes 18.4473
